<svg xmlns="http://www.w3.org/2000/svg" xmlns:xlink="http://www.w3.org/1999/xlink" width="50" height="50" viewBox="0 0 50 50" version="1.1" xml:space="preserve" style="clip-rule:evenodd;fill-rule:evenodd;stroke-linejoin:round;stroke-miterlimit:2;">
    <g transform="matrix(0.183333,0,0,0.183333,0,0)">
        <g>
            <path d="M211.5,156.5C210.3,143.9 204.6,132.7 196.6,126.8C195.2,121.7 192.8,117.2 189.7,113.3C189.2,107.4 186.7,95.8 175,85.5C176.3,84.3 177.5,83 178.4,81.4C188.2,77 195,67.9 195.8,61.1C201,55.9 204,49.7 204.2,43.6C204.3,40.7 203.8,38 202.7,35.7C207,31 208.4,25.6 206.6,20.2C203.7,11.8 193.5,6.3 179.8,5.7C176.1,2.3 171,0.6 164.9,0.6C162.3,0.6 159.5,0.9 156.8,1.6C154.6,0.5 151.9,0 148.9,0C143.8,0 138.1,1.6 133.8,4.1C133.1,4 132.5,4 131.9,4C125.1,4 118.3,8.7 114.8,11.5C111.4,14.3 108.3,17.5 105.8,20.8C103.3,17.5 100.2,14.2 96.8,11.5C93.5,8.7 86.6,4 79.8,4C79.2,4 78.6,4 78,4.1C73.7,1.6 68,0 62.9,0C59.9,0 57.2,0.6 55,1.6C52.3,0.9 49.6,0.6 46.9,0.6C40.8,0.6 35.6,2.4 32,5.7C18.2,6.3 8,11.8 5.1,20.2C3.3,25.5 4.7,31 9,35.7C7.9,38 7.4,40.7 7.5,43.6C7.7,49.7 10.7,55.9 15.9,61.1C16.7,67.9 23.6,77.1 33.3,81.4C34.2,83 35.4,84.4 36.7,85.5C25,95.7 22.5,107.3 22,113.3C18.8,117.2 16.5,121.7 15.1,126.8C7.1,132.7 1.4,143.9 0.2,156.5C-1,169 2.5,180.7 9.5,188.1C10.5,193.7 13.7,201.1 17.1,205.6C17.8,215.1 21.8,224.5 28.6,232.1C35.4,239.8 44.3,245.1 53.9,247.1C59.7,252.5 65.8,256.3 74.1,259.6C77.7,263.3 88.3,272 105.9,272C123.5,272 134.1,263.2 137.7,259.6C146,256.3 152.1,252.5 157.9,247.1C167.5,245.1 176.4,239.8 183.2,232.1C189.9,224.5 194,215.1 194.7,205.6C198.1,201.1 201.3,193.8 202.3,188.1C209.3,180.7 212.7,169 211.5,156.5Z" style="fill:rgb(29,29,27);fill-rule:nonzero;"/>
            <path d="M131.5,18.3C132.2,18.1 132.9,18.7 132.9,19.4C132.6,22.6 134.5,22.2 135,21.7C140.1,15.4 145.5,13.9 150.3,14.3C151.1,14.4 151.6,15.4 151,16C149.1,18.8 151.1,19.4 151.9,18.9C159.7,14 167.2,14 170.1,16C170.7,16.4 170.7,17.2 170.2,17.7C167.3,20.2 168.9,21.4 169.9,21C177.9,18.2 188.9,20.7 192.7,23.9C193.2,24.3 193.2,25.1 192.7,25.5C187.9,29.8 185.5,33.2 184.4,40C184.2,41.9 187.3,41.5 188.7,41.2C189.4,41 190,41.5 190,42.2C190.1,46.8 185.8,51.8 179.3,56.1C178.4,56.7 178.6,58.1 180.5,58.1C181.4,58.2 181.8,59 181.4,59.7C179.1,64 176,68 165.3,70.7C164.3,71 164.2,72.3 165.1,72.8C166,73.2 166.1,74.1 165.4,74.6C154.8,83.7 127.9,80.1 124.5,64.8C124.4,64.5 124.5,64.2 124.7,63.9C131.1,55.4 145.9,38.7 169.3,30C170.2,29.6 169.9,28.2 168.9,28.4C146.2,31.8 130.2,44.4 120.5,57.6C120.2,58 119.6,58.2 119.1,57.9C102.1,49.2 116.2,22.9 131.5,18.3Z" style="fill:rgb(71,172,77);fill-rule:nonzero;"/>
            <path d="M30.2,59.9C29.8,59.2 30.2,58.4 31.1,58.3C33.1,58.2 33.2,56.9 32.3,56.3C25.9,52 21.5,47 21.6,42.4C21.6,41.7 22.3,41.2 22.9,41.4C24.2,41.7 27.4,42.1 27.2,40.2C26.1,33.4 23.7,30 18.9,25.7C18.4,25.3 18.4,24.5 18.9,24.1C22.7,20.9 33.7,18.4 41.7,21.2C42.7,21.6 44.3,20.3 41.4,17.9C40.9,17.4 40.9,16.6 41.5,16.2C44.5,14 52,14 59.8,18.9C60.6,19.4 62.6,18.9 60.7,16C60.2,15.3 60.6,14.3 61.4,14.3C66.2,13.9 71.6,15.3 76.7,21.7C77.2,22.3 79.1,22.7 78.8,19.4C78.7,18.6 79.4,18 80.2,18.3C95.5,23 109.6,49.2 92.4,58.1C91.9,58.3 91.3,58.2 91,57.8C81.3,44.6 65.3,32 42.6,28.6C41.6,28.5 41.2,29.9 42.2,30.2C65.6,39 80.4,55.6 86.8,64.1C87,64.4 87.1,64.7 87,65C83.6,80.3 56.7,83.9 46.1,74.8C45.5,74.3 45.5,73.4 46.4,73C47.3,72.6 47.3,71.2 46.2,70.9C35.6,68.2 32.5,64.1 30.2,59.9Z" style="fill:rgb(71,172,77);fill-rule:nonzero;"/>
            <path d="M173.8,106.8C178.2,118.6 174.8,124.2 164.3,118.2C156,113.7 148.2,107.1 142.3,99.7C134.4,90.3 139.5,86.1 152,88.4C161.2,90.7 170,98 173.8,106.8Z" style="fill:rgb(204,36,85);fill-rule:nonzero;"/>
            <path d="M126.8,93.5C141.8,106 124.6,114.8 105.9,114.8C87.2,114.8 70,106 85,93.5C94,86.5 102.6,86.2 105.9,86.2C109.2,86.2 117.8,86.5 126.8,93.5Z" style="fill:rgb(204,36,85);fill-rule:nonzero;"/>
            <path d="M38,106.8C41.8,98.1 50.6,90.7 59.9,88.5C72.3,86.2 77.5,90.4 69.6,99.8C63.7,107.2 55.9,113.7 47.6,118.3C37,124.2 33.6,118.5 38,106.8Z" style="fill:rgb(204,36,85);fill-rule:nonzero;"/>
            <path d="M16.3,172.1C12.8,163 13.7,152 18.8,143.5C24.3,134.1 29.9,134.5 32.1,142.4C35,152.9 33.9,165.5 29.2,175.4C25.1,183.6 20,180.9 16.3,172.1Z" style="fill:rgb(204,36,85);fill-rule:nonzero;"/>
            <path d="M56.2,233.1C42.9,230.3 31.6,216.9 31.1,203.3C33.2,155 102.9,241.4 56.2,233.1Z" style="fill:rgb(204,36,85);fill-rule:nonzero;"/>
            <path d="M57.6,172.9C45.9,166.1 42.8,149.6 50.7,136C58.6,122.4 74.4,116.8 86.1,123.5C97.8,130.3 100.9,146.8 93,160.4C85.1,174 69.3,179.6 57.6,172.9Z" style="fill:rgb(204,36,85);fill-rule:nonzero;"/>
            <path d="M125.4,251.6C119.9,255.6 113.2,257.9 105.9,257.9C98.6,257.9 91.9,255.6 86.4,251.6C74.8,243.6 86.5,234.4 105.9,234.4C125.3,234.4 137,243.6 125.4,251.6Z" style="fill:rgb(204,36,85);fill-rule:nonzero;"/>
            <ellipse cx="105.9" cy="199" rx="27.1" ry="23.3" style="fill:rgb(204,36,85);"/>
            <path d="M118.7,160.4C110.8,146.8 113.9,130.2 125.6,123.5C137.3,116.7 153.2,122.3 161,136C168.9,149.6 165.8,166.2 154.1,172.9C142.4,179.6 126.5,174 118.7,160.4Z" style="fill:rgb(204,36,85);fill-rule:nonzero;"/>
            <path d="M155.5,233.1C108.8,241.3 178.5,154.9 180.6,203.3C180.1,216.9 168.8,230.3 155.5,233.1Z" style="fill:rgb(204,36,85);fill-rule:nonzero;"/>
            <path d="M195.5,172.1C191.8,180.9 186.7,183.6 182.6,175.5C178,165.6 176.9,153 179.7,142.5C181.9,134.5 187.5,134.1 193,143.6C198.1,152 198.9,163 195.5,172.1Z" style="fill:rgb(204,36,85);fill-rule:nonzero;"/>
        </g>
    </g>
</svg>
